<svg viewBox="0 0 128 128" xml:space="preserve" xmlns="http://www.w3.org/2000/svg" enable-background="new 0 0 128 128"><g id="_x38__Teleport"><path d="M92 28h8v8h-8zM28 16h8v8h-8zM44 40h8v8h-8z" fill="#f5f3f5" class="fill-000000"></path><path d="M112 40v35.2c-3.3-2.3-7.3-4.2-12-5.8V44h-8v23.1C83.3 65 73.6 64 64 64c-4 0-8 .2-12 .5V56h-8v9.5c-2.7.4-5.4 1-8 1.6V32h-8v37.4c-4.7 1.6-8.7 3.5-12 5.8V56H8v32c0 15.6 28.9 24 56 24s56-8.4 56-24V40h-8zM16 88c0-5 10.3-11.5 28-14.4v28.9C26.3 99.5 16 93 16 88zm72 13.7V80h-8v23c-4.9.6-10.2 1-16 1-4.2 0-8.2-.2-12-.5v-31c3.8-.3 7.8-.5 12-.5 29.7 0 48 9.3 48 16 0 4.6-8.8 10.5-24 13.7z" fill="#f5f3f5" class="fill-000000"></path></g></svg>